<?xml version="1.0" encoding="UTF-8"?>
<svg id="_レイヤー_2" data-name="レイヤー 2" xmlns="http://www.w3.org/2000/svg" viewBox="0 0 51.02 45.05">
  <defs>
    <style>
      .cls-1 {
        fill: #b34341;
      }

      .cls-2 {
        fill: #19242e;
      }
    </style>
  </defs>
  <g id="_レイヤー_2-2" data-name="レイヤー 2">
    <g>
      <path class="cls-2" d="M23.48,31.31s-.01,0-.02,0l-22.41.05c-.34,0-.65-.17-.85-.44-.2-.28-.26-.62-.16-.95L6.56,8.84c.06-.2.06-.42-.02-.62L4.07,1.44c-.12-.33-.07-.69.13-.98.2-.29.52-.46.88-.46h10.26s.05.02.05.05-.02.05-.05.05H5.08c-.32,0-.62.15-.8.42-.19.27-.23.59-.12.9l2.47,6.78c.08.22.09.46.02.68L.13,30c-.09.3-.04.61.14.87.18.25.47.4.78.4l22.41-.05c.32,0,.61-.14.8-.39.19-.25.25-.57.15-.88l-5.59-17.82s0-.05.03-.06c.02,0,.05,0,.06.03l5.59,17.82c.1.33.04.68-.17.96-.2.27-.52.43-.86.43Z"/>
      <path class="cls-2" d="M30.94,31.7s-.04-.01-.04-.03l-6.03-19.54s0-.05.03-.06c.02,0,.05,0,.06.03l6.03,19.54s0,.05-.03.06c0,0,0,0-.01,0Z"/>
      <path class="cls-1" d="M19.19,28.25c.85,0,1.3-.88.88-1.6-1.06-1.84-3.68-3.88-8.12-3.81-4.78.08-6.9,2.37-7.71,3.78-.39.68.1,1.53.91,1.53,4.85.03,13.39.19,14.03.11Z"/>
      <path class="cls-1" d="M47.57,13.06c.27-.85-.26-1.56-1.28-1.41-1.75.27-4.21,2.2-5.79,7.62-1.31,4.48-.11,7.57.54,8.28.32.35,1.2,1.15,1.95-.38s4.59-14.12,4.59-14.12Z"/>
      <path class="cls-2" d="M50.95,31.42h-11.94s-.05-.02-.05-.05.02-.05.05-.05h11.94s.05.02.05.05-.02.05-.05.05Z"/>
      <path class="cls-2" d="M42.36,39.26s0,0-.01,0c-.02,0-.04-.03-.03-.06l8.61-27.54s.03-.04.06-.03c.02,0,.04.03.03.06l-8.61,27.54s-.02.03-.04.03Z"/>
      <circle class="cls-2" cx="41.54" cy="43.62" r="1.43"/>
    </g>
  </g>
</svg>