<?xml version="1.0" encoding="UTF-8"?>
<svg id="_レイヤー_2" data-name="レイヤー 2" xmlns="http://www.w3.org/2000/svg" viewBox="0 0 51.02 45.05">
  <defs>
    <style>
      .cls-1 {
        fill: #b34341;
      }

      .cls-2 {
        fill: #c9d5d6;
      }
    </style>
  </defs>
  <g id="_レイヤー_2-2" data-name="レイヤー 2">
    <g>
      <path class="cls-1" d="M11.96,22.84c-4.78.08-6.9,2.37-7.71,3.78-.39.68.1,1.53.91,1.53,4.85.03,13.39.19,14.03.11.85,0,1.3-.88.88-1.6-1.06-1.84-3.68-3.88-8.12-3.81Z"/>
      <path class="cls-1" d="M46.28,11.65c-1.75.27-4.21,2.2-5.79,7.62-1.31,4.48-.11,7.57.54,8.28.32.35,1.2,1.15,1.95-.38.75-1.52,4.59-14.12,4.59-14.12.27-.85-.26-1.56-1.28-1.41Z"/>
      <path class="cls-2" d="M18.91,12.1s-.03-.04-.06-.03c-.02,0-.04.03-.03.06l5.59,17.82c.09.3.04.62-.15.88-.19.25-.48.4-.8.39l-22.41.05c-.31,0-.6-.15-.78-.4-.18-.25-.24-.57-.14-.87L6.64,8.87c.07-.22.06-.46-.02-.68L4.16,1.41c-.11-.3-.07-.63.12-.9.19-.27.48-.42.8-.42h10.26s.05-.02.05-.05-.02-.05-.05-.05H5.08c-.35,0-.67.17-.88.46-.2.29-.25.65-.13.98l2.47,6.78c.07.2.08.42.02.62L.05,29.97c-.1.33-.04.67.16.95.2.28.51.44.85.44l22.41-.05s.01,0,.02,0c.34,0,.65-.16.86-.43.21-.28.27-.63.17-.96l-5.59-17.82Z"/>
      <path class="cls-2" d="M24.89,12.07s-.04.03-.03.06l6.03,19.54s.02.03.04.03c0,0,0,0,.01,0,.02,0,.04-.03.03-.06l-6.03-19.54s-.03-.04-.06-.03Z"/>
      <path class="cls-2" d="M50.99,11.64s-.05,0-.06.03l-6.15,19.66h-5.77s-.05.02-.05.05.02.05.05.05h5.74l-2.43,7.78s0,.05.03.06c0,0,0,0,.01,0,.02,0,.04-.01.04-.03l2.44-7.81h6.1s.05-.02.05-.05-.02-.05-.05-.05h-6.08l6.14-19.64s0-.05-.03-.06Z"/>
      <path class="cls-2" d="M41.54,42.19c-.79,0-1.43.64-1.43,1.43s.64,1.43,1.43,1.43,1.43-.64,1.43-1.43-.64-1.43-1.43-1.43Z"/>
    </g>
  </g>
</svg>